<svg width="21" height="20" viewBox="0 0 21 20" fill="none" xmlns="http://www.w3.org/2000/svg">
<path d="M13.9083 17.5455C14.0025 17.8519 14.2029 18.0051 14.5093 18.0051C14.8157 18.0051 15.0161 17.8519 15.1103 17.5455L15.9942 14.611L13.3426 15.7777L13.9083 17.5455ZM11.0445 13.3382L11.893 14.1867L17.7973 11.6765C17.927 11.6176 17.9977 11.5292 18.0095 11.4113C18.0213 11.2935 18.0095 11.1815 17.9741 11.0755L17.1256 9.09555C17.0549 8.95413 16.94 8.8628 16.7809 8.82155C16.6218 8.7803 16.4774 8.80092 16.3478 8.88342L11.0445 13.3382ZM5.81189 8.1056L6.66042 8.95413L11.1152 3.65083C11.2213 3.49762 11.2478 3.34736 11.1947 3.20005C11.1417 3.05274 11.0445 2.94372 10.9031 2.87301L8.92316 2.02448C8.79352 1.96556 8.67567 1.94788 8.5696 1.97145C8.46354 1.99502 8.38104 2.07163 8.32212 2.20126L5.81189 8.1056ZM2.45313 6.09035L4.2209 6.65603L5.38762 4.00438L2.45313 4.88827C2.14672 4.98255 1.99351 5.1829 1.99351 5.48931C1.99351 5.79572 2.14672 5.99607 2.45313 6.09035ZM8.07463 10.3683L9.63026 11.924L16.1356 6.47926C16.2653 6.39676 16.3301 6.27891 16.3301 6.1257C16.3301 5.9725 16.2771 5.84286 16.171 5.7368L14.2618 3.82761C14.1675 3.73333 14.0438 3.68619 13.8906 3.68619C13.7374 3.68619 13.6136 3.74511 13.5194 3.86296L8.07463 10.3683ZM0.685364 7.22172C0.190389 6.72675 -0.036474 6.12865 0.00477393 5.42744C0.0460218 4.72622 0.320026 4.12224 0.826786 3.61548C0.968207 3.47405 1.12731 3.3562 1.30408 3.26192C1.48086 3.16764 1.66353 3.08515 1.85209 3.01443L6.37757 1.60022C6.68399 0.963825 7.15539 0.504205 7.79179 0.221363C8.42818 -0.0614801 9.06458 -0.0732652 9.70098 0.186007L11.6809 1.03454C11.9048 1.1406 12.111 1.26435 12.2996 1.40577C12.4882 1.54719 12.6473 1.71807 12.7769 1.91842C13.2837 1.74164 13.7992 1.68566 14.3237 1.75048C14.8481 1.8153 15.2989 2.03627 15.676 2.41339L17.5852 4.32258C17.9623 4.69971 18.1833 5.15049 18.2481 5.67492C18.3129 6.19936 18.257 6.71496 18.0802 7.22172C18.2688 7.36314 18.4367 7.52519 18.584 7.70786C18.7313 7.89052 18.858 8.09382 18.9641 8.31774L19.8126 10.2976C20.0954 10.9576 20.1013 11.6117 19.8303 12.2599C19.5592 12.908 19.0937 13.35 18.4337 13.5857L17.0195 18.1112C16.9606 18.3115 16.8781 18.5001 16.772 18.6768C16.666 18.8536 16.5363 19.0186 16.3831 19.1718C15.8528 19.7022 15.2282 19.9673 14.5093 19.9673C13.7904 19.9673 13.1658 19.7022 12.6355 19.1718C12.5058 19.0422 12.3909 18.8978 12.2908 18.7387C12.1906 18.5796 12.1051 18.4058 12.0344 18.2172L11.4687 16.5909L3.37237 8.49451L1.85209 8.03489C1.61639 7.96418 1.40426 7.85222 1.21569 7.69902C1.02713 7.54581 0.850356 7.38671 0.685364 7.22172Z" fill="#1F1F1F"/>
</svg>
