<svg width="21" height="21" viewBox="0 0 21 21" fill="none" xmlns="http://www.w3.org/2000/svg">
<path d="M1.425 20.825L0 19.4L2.425 16.975C1.94167 16.4917 1.57917 15.9417 1.3375 15.325C1.09583 14.7083 0.975 14.0667 0.975 13.4C0.975 12.7167 1.1 12.075 1.35 11.475C1.6 10.875 1.95833 10.3417 2.425 9.875L3.85 8.475L4.55 9.175C4.63333 8.64167 4.79167 8.13333 5.025 7.65C5.25833 7.16667 5.56667 6.73333 5.95 6.35L7.375 4.95L8.075 5.65C8.15833 5.11667 8.32083 4.60833 8.5625 4.125C8.80417 3.64167 9.11667 3.20833 9.5 2.825L12.35 0L13.75 1.4L12.35 2.825C12.7333 3.20833 13.0417 3.64167 13.275 4.125C13.5083 4.60833 13.6667 5.11667 13.75 5.65L18.575 0.825L19.975 2.25L15.175 7.075C15.7083 7.15833 16.2167 7.31667 16.7 7.55C17.1833 7.78333 17.6167 8.09167 18 8.475L19.4 7.05L20.825 8.475L18.025 11.3C17.6417 11.7 17.2 12.0208 16.7 12.2625C16.2 12.5042 15.6833 12.6667 15.15 12.75L15.85 13.425L14.45 14.825C14.0667 15.2083 13.6292 15.5208 13.1375 15.7625C12.6458 16.0042 12.1333 16.1667 11.6 16.25L12.325 16.95L10.9 18.375C10.4167 18.8583 9.87083 19.2208 9.2625 19.4625C8.65417 19.7042 8.01667 19.825 7.35 19.825C6.78333 19.825 6.2125 19.7042 5.6375 19.4625C5.0625 19.2208 4.475 18.85 3.875 18.35L1.425 20.825ZM3.85 15.525C4.13333 15.2417 4.35 14.9208 4.5 14.5625C4.65 14.2042 4.725 13.825 4.725 13.425C4.725 13.0417 4.65 12.6625 4.5 12.2875C4.35 11.9125 4.13333 11.5833 3.85 11.3C3.56667 11.5833 3.34583 11.9125 3.1875 12.2875C3.02917 12.6625 2.95 13.0417 2.95 13.425C2.95 13.825 3.02917 14.2042 3.1875 14.5625C3.34583 14.9208 3.56667 15.2417 3.85 15.525ZM7.375 17.85C7.775 17.8333 8.15833 17.75 8.525 17.6C8.89167 17.45 9.21667 17.2333 9.5 16.95C9.21667 16.6667 8.8875 16.45 8.5125 16.3C8.1375 16.15 7.75833 16.075 7.375 16.075C6.99167 16.075 6.6125 16.1542 6.2375 16.3125C5.8625 16.4708 5.53333 16.6917 5.25 16.975C5.53333 17.2583 5.85833 17.475 6.225 17.625C6.59167 17.775 6.975 17.85 7.375 17.85ZM7.375 12C7.65833 11.7167 7.875 11.3917 8.025 11.025C8.175 10.6583 8.25 10.2833 8.25 9.9C8.25 9.5 8.175 9.11667 8.025 8.75C7.875 8.38333 7.65833 8.05833 7.375 7.775C7.09167 8.05833 6.87083 8.38333 6.7125 8.75C6.55417 9.11667 6.475 9.5 6.475 9.9C6.475 10.2833 6.55417 10.6583 6.7125 11.025C6.87083 11.3917 7.09167 11.7167 7.375 12ZM10.925 14.325C11.325 14.325 11.7042 14.2458 12.0625 14.0875C12.4208 13.9292 12.7417 13.7083 13.025 13.425C12.7417 13.1417 12.4208 12.925 12.0625 12.775C11.7042 12.625 11.325 12.55 10.925 12.55C10.525 12.55 10.1417 12.6292 9.775 12.7875C9.40833 12.9458 9.08333 13.1667 8.8 13.45C9.08333 13.7333 9.40833 13.95 9.775 14.1C10.1417 14.25 10.525 14.325 10.925 14.325ZM10.925 8.475C11.2083 8.19167 11.4208 7.86667 11.5625 7.5C11.7042 7.13333 11.775 6.75 11.775 6.35C11.775 5.96667 11.7042 5.5875 11.5625 5.2125C11.4208 4.8375 11.2083 4.50833 10.925 4.225C10.6417 4.50833 10.4208 4.8375 10.2625 5.2125C10.1042 5.5875 10.025 5.96667 10.025 6.35C10.025 6.75 10.1042 7.13333 10.2625 7.5C10.4208 7.86667 10.6417 8.19167 10.925 8.475ZM14.45 10.775C14.8333 10.775 15.2125 10.6958 15.5875 10.5375C15.9625 10.3792 16.2917 10.1583 16.575 9.875C16.275 9.59167 15.9375 9.375 15.5625 9.225C15.1875 9.075 14.8083 9 14.425 9C14.0417 9.01667 13.6667 9.1 13.3 9.25C12.9333 9.4 12.6083 9.61667 12.325 9.9C12.6083 10.1833 12.9375 10.4042 13.3125 10.5625C13.6875 10.7208 14.0667 10.7917 14.45 10.775Z" fill="#1F1F1F"/>
</svg>
