<svg width="24" height="24" viewBox="0 0 24 24" fill="none" xmlns="http://www.w3.org/2000/svg">
<g clip-path="url(#clip0_8_4)">
<path d="M13.4451 25.3054H11.4299V21.8759C10.7463 21.8759 10.1011 21.7433 9.49417 21.4782C8.88724 21.213 8.34807 20.8447 7.87667 20.3733C7.39348 19.8901 7.02814 19.348 6.78065 18.747C6.53316 18.1459 6.40942 17.5154 6.40942 16.8555L6.4271 14.8579H7.41705C7.09885 14.4218 6.85136 13.9504 6.67458 13.4437C6.49781 12.9369 6.40942 12.4125 6.40942 11.8704L6.4271 9.87278H7.41705C7.09885 9.43673 6.85431 8.96238 6.68342 8.44972C6.51254 7.93707 6.4271 7.40969 6.4271 6.86757L6.44477 2.85474H8.42467L8.44235 4.85232C8.98447 4.85232 9.5089 4.94071 10.0157 5.11748C10.5224 5.29426 10.9938 5.54175 11.4299 5.85994L11.4299 -0.963636L13.4275 -0.945959L13.4451 5.85994C13.8812 5.54175 14.3526 5.29426 14.8593 5.11748C15.3661 4.94071 15.8905 4.85232 16.4327 4.85232L16.415 2.85474H18.4302L18.4479 6.83222C18.4597 7.38612 18.3743 7.92529 18.1916 8.44972C18.0089 8.97416 17.7585 9.4544 17.4403 9.89045L18.4126 9.87278V11.8527C18.4126 12.3948 18.3242 12.9251 18.1474 13.4437C17.9706 13.9622 17.7231 14.4395 17.4049 14.8756L18.4126 14.8579V16.8731C18.4126 17.5567 18.2829 18.199 18.0236 18.8C17.7644 19.401 17.399 19.9373 16.9276 20.4087C16.5269 20.8094 16.0379 21.1276 15.4604 21.3633C14.8829 21.599 14.2053 21.7522 13.4275 21.8229L13.4451 25.3054ZM11.4122 19.843C11.4122 19.4423 11.3385 19.0622 11.1912 18.7028C11.0439 18.3433 10.8288 18.0222 10.546 17.7393C10.2749 17.4683 9.95379 17.2532 9.58256 17.0941C9.21133 16.935 8.82537 16.8555 8.42467 16.8555C8.42467 17.2561 8.50128 17.6451 8.65448 18.0222C8.80769 18.3993 9.01982 18.7234 9.29088 18.9945C9.57372 19.2773 9.89781 19.4894 10.2632 19.6308C10.6285 19.7723 11.0115 19.843 11.4122 19.843ZM15.5488 18.9945C15.8198 18.6998 16.032 18.3698 16.1852 18.0045C16.3384 17.6392 16.415 17.2561 16.415 16.8555C16.0143 16.8555 15.6283 16.935 15.2571 17.0941C14.8859 17.2532 14.5647 17.4683 14.2937 17.7393C14.0226 18.0104 13.8105 18.3345 13.6573 18.7116C13.5041 19.0887 13.4275 19.4776 13.4275 19.8783C13.8281 19.8783 14.2112 19.8017 14.5765 19.6485C14.9418 19.4953 15.2659 19.2773 15.5488 18.9945ZM11.4122 14.8579C11.4122 14.4572 11.3356 14.0742 11.1824 13.7088C11.0292 13.3435 10.8171 13.0253 10.546 12.7542C10.2632 12.4714 9.93906 12.2534 9.57372 12.1002C9.20838 11.947 8.82537 11.8704 8.42467 11.8704C8.42467 12.271 8.49833 12.657 8.64564 13.0282C8.79296 13.3995 9.00804 13.7265 9.29088 14.0093C9.56194 14.2804 9.88308 14.4896 10.2543 14.6369C10.6255 14.7842 11.0115 14.8579 11.4122 14.8579ZM15.5665 13.9917C15.8493 13.7088 16.0614 13.3847 16.2028 13.0194C16.3443 12.6541 16.415 12.271 16.415 11.8704C16.0143 11.8704 15.6342 11.944 15.2748 12.0913C14.9153 12.2386 14.5942 12.4537 14.3113 12.7366C14.0285 13.0194 13.8134 13.3464 13.6661 13.7177C13.5188 14.0889 13.4451 14.4749 13.4451 14.8756C13.8458 14.8756 14.2288 14.799 14.5942 14.6457C14.9595 14.4925 15.2836 14.2745 15.5665 13.9917ZM11.4299 9.8551C11.4299 9.4544 11.3503 9.07433 11.1912 8.71489C11.0321 8.35544 10.8112 8.0343 10.5283 7.75145C10.2573 7.4804 9.93906 7.26237 9.57372 7.09738C9.20838 6.93239 8.82537 6.84989 8.42467 6.84989C8.42467 7.25059 8.50128 7.6395 8.65448 8.01662C8.80769 8.39374 9.01982 8.71783 9.29088 8.98889C9.57372 9.27173 9.90076 9.48681 10.272 9.63413C10.6432 9.78144 11.0292 9.8551 11.4299 9.8551ZM15.5488 8.98889C15.8198 8.71783 16.032 8.39374 16.1852 8.01662C16.3384 7.6395 16.415 7.25059 16.415 6.84989C16.0025 6.86168 15.6106 6.94712 15.2394 7.10622C14.8682 7.26532 14.547 7.4804 14.276 7.75145C14.0167 8.0343 13.8105 8.35839 13.6573 8.72373C13.5041 9.08907 13.4275 9.47208 13.4275 9.87278C13.8281 9.87278 14.2171 9.79617 14.5942 9.64297C14.9713 9.48976 15.2895 9.27173 15.5488 8.98889Z" fill="#1F1F1F"/>
</g>
<defs>
<clipPath id="clip0_8_4">
<rect width="24" height="24" fill="white"/>
</clipPath>
</defs>
</svg>
